<?xml version="1.0" encoding="UTF-8"?>
<svg width="30px" height="30px" viewBox="0 0 30 30" version="1.1" xmlns="http://www.w3.org/2000/svg" xmlns:xlink="http://www.w3.org/1999/xlink">
    <!-- Generator: Sketch 57.1 (83088) - https://sketch.com -->
    <title>Shape</title>
    <desc>Created with Sketch.</desc>
    <g id="Page-1" stroke="none" stroke-width="1" fill="none" fill-rule="evenodd">
        <g id="Artboard" transform="translate(-15.000000, -15.000000)" fill="#DC3545" fill-rule="nonzero">
            <path d="M29.0002,15 C28.0574,15 27.07814,16.0838 27.1002,17 L27.1002,29 C27.08526,30.05662 27.94346,31 29.0002,31 C30.05694,31 30.91514,30.05662 30.9002,29 L30.9002,17 C30.929444,15.7898 29.943,15 29.0002,15 Z M22.3126,20 C22.138228,20.038588 21.96934,20.101918 21.8126,20.1875 C15.8136,23.3305 13.9758,29.7833 15.5626,35.1251 C17.1494,40.4651 22.1224,44.9991 28.9376,44.9991 C35.656,44.9991 40.692,40.7011 42.376,35.4371 C44.058,30.1729 42.26,23.7903 36.126,20.2491 C35.258,19.7419 34.008,20.0693 33.5,20.9365 C32.9928,21.8037 33.32,23.0543 34.188,23.5615 C38.9696,26.3211 39.953,30.5503 38.7504,34.3115 C37.548,38.0727 34.0624,41.1865 28.938,41.1865 C23.7862,41.1865 20.3428,37.8861 19.188,33.9989 C18.0328,30.1119 19.094,25.9029 23.5626,23.5615 C24.32,23.1489 24.7208,22.1765 24.4742,21.3501 C24.2278,20.5235 23.3598,19.9295 22.5002,19.9991 C22.4376,19.9961 22.375,19.9961 22.3126,19.9991 L22.3126,20 Z" id="Shape"></path>
        </g>
    </g>
</svg>